<?xml version="1.0" encoding="UTF-8"?>
<svg id="Capa_1" data-name="Capa 1" xmlns="http://www.w3.org/2000/svg" viewBox="0 0 1065.7641431409 737.3774323692">
  <g opacity=".1">
    <path d="M213.6857257779,485.1819832341c-5.7724609375,8.435546875-5.658203125,16.5380859375.3330078125,24.296875,5.9912109375,7.7705078125,13.19921875,11.6494140625,21.634765625,11.6494140625h7.98828125v6.6572265625H98.5236164029v-6.6572265625h8.6533203125c13.3134765625,0,25.5146484375-3.431640625,36.6123046875-10.3173828125,11.087890625-6.875,20.189453125-14.7490234375,27.29296875-23.6318359375l42.603515625-1.9970703125ZM265.6095539029,128.3772957341v6.6572265625h-7.98828125c-8.435546875,0-15.5400390625,3.8896484375-21.3017578125,11.6494140625-5.7724609375,7.76953125-5.9912109375,15.642578125-.666015625,23.630859375l-53.25390625-1.9970703125c-6.6572265625-8.8720703125-15.7587890625-16.6416015625-27.29296875-23.298828125-11.5458984375-6.65625-23.96484375-9.984375-37.2783203125-9.984375h-8.654296875v-6.6572265625h156.435546875ZM302.8868976529,319.4271004216l13.314453125,27.29296875-133.8017578125,180.3994140625h-41.9384765625l162.42578125-207.6923828125ZM207.0294757779,129.0433113591l277.5888671875,398.076171875h-53.919921875L154.4406085904,129.0433113591h52.5888671875ZM473.9669757779,129.0433113591l-141.7900390625,197.041015625-16.6416015625-27.958984375,113.166015625-169.08203125h45.265625ZM518.5675617154,128.3772957341v6.6572265625h-9.3193359375c-13.3134765625,0-25.62890625,3.328125-36.9453125,9.984375-11.31640625,6.6572265625-20.302734375,14.6455078125-26.9599609375,23.96484375l-44.6005859375,1.9970703125c5.3251953125-8.4248046875,5.2109375-16.52734375-.3330078125-24.296875-5.5537109375-7.759765625-12.76171875-11.6494140625-21.634765625-11.6494140625h-7.9873046875v-6.6572265625h147.7802734375ZM402.0734210904,485.8479988591l54.5859375,1.9970703125c6.6572265625,8.4345703125,15.748046875,16.0908203125,27.29296875,22.9658203125,11.53515625,6.8857421875,23.96484375,10.3173828125,37.2783203125,10.3173828125h8.654296875v6.6572265625h-157.7666015625v-6.6572265625h7.98828125c8.8720703125,0,16.080078125-3.87890625,21.634765625-11.6494140625,5.5439453125-7.7587890625,5.658203125-15.6435546875.33203125-23.630859375Z" fill="#1d1d1b"/>
    <path d="M627.7345539029,176.9720222966h-50.591796875c-6.6572265625-15.08203125-14.8740234375-25.84765625-24.6298828125-32.28515625-9.767578125-6.4287109375-19.0869140625-9.65234375-27.958984375-9.65234375h-5.3251953125v-6.6572265625h136.4638671875v6.6572265625h-5.3251953125c-7.55078125,0-14.3115234375,3.6611328125-20.302734375,10.9833984375s-6.771484375,17.640625-2.330078125,30.9541015625ZM740.2345539029,537.1048347966l-183.0625-404.7333984375h52.5888671875l141.7900390625,345.48828125-11.31640625,59.2451171875ZM740.2345539029,537.1048347966l-4.66015625-45.931640625,152.44140625-360.798828125h41.9375l-157.7666015625,338.166015625c-4.8876953125,10.650390625-8.986328125,19.8662109375-12.314453125,27.625-3.3291015625,7.7705078125-6.32421875,15.42578125-8.9873046875,22.9658203125-2.662109375,7.5517578125-4.22265625,13.5322265625-4.6591796875,17.9736328125h-5.9912109375ZM868.7111164029,176.9720222966c4.8779296875-13.3134765625,4.2119140625-23.6318359375-1.9970703125-30.9541015625-6.2197265625-7.322265625-13.3134765625-10.9833984375-21.3017578125-10.9833984375h-4.66015625v-6.6572265625h126.4794921875v6.6572265625h-5.3251953125c-9.3203125,0-18.8681640625,3.2236328125-28.625,9.65234375-9.7666015625,6.4375-18.2021484375,17.203125-25.2958984375,32.28515625h-39.2744140625Z" fill="#1d1d1b"/>
  </g>
  <g>
    <path d="M261.8419757779,404.0403816716c0-27.56640625,54.5361328125-101.7568359375,93.1484375-146.490234375-35.7763671875,3.9306640625-76.5791015625,11.2451171875-107.578125,18.4609375-2.6376953125.646484375-3.6826171875-3.533203125-.9951171875-4.1796875,32.392578125-7.513671875,75.6328125-15.1767578125,112.703125-19.0087890625,2.2392578125-2.537109375,4.37890625-4.92578125,6.46875-7.21484375,2.2392578125-2.388671875,5.3740234375.5478515625,3.2841796875,2.88671875-1.0947265625,1.193359375-2.189453125,2.4375-3.333984375,3.681640625,12.7880859375-1.14453125,24.6806640625-1.8408203125,34.98046875-1.8408203125,25.4267578125,0,38.4638671875,4.1298828125,38.4638671875,12.9873046875,0,4.92578125-3.234375,9.3046875-8.7578125,11.9912109375l-1.990234375-3.880859375c4.0302734375-1.9404296875,6.26953125-4.876953125,6.26953125-8.1103515625,0-5.3740234375-11.79296875-8.7080078125-33.9853515625-8.7080078125-11.39453125,0-24.779296875.845703125-39.1103515625,2.2890625-38.513671875,43.9365234375-95.0888671875,120.1181640625-95.0888671875,147.13671875,0,3.43359375.845703125,6.26953125,2.2392578125,8.01171875,2.0400390625,2.4873046875-1.14453125,5.4736328125-3.3837890625,2.7861328125-2.1396484375-2.587890625-3.333984375-6.4189453125-3.333984375-10.7978515625Z" fill="#1d1d1b" stroke="#1d1d1b" stroke-miterlimit="10" stroke-width="1.8919398785"/>
    <path d="M314.8908039029,382.2464363591c-5.6728515625,0-8.95703125-2.8369140625-8.95703125-7.8623046875,0-10.05078125,9.50390625-22.2421875,18.6591796875-22.2421875,3.6826171875,0,6.021484375,1.8408203125,6.021484375,5.224609375,0,5.9716796875-7.912109375,9.404296875-17.416015625,8.2099609375-1.69140625,2.88671875-2.7861328125,6.021484375-2.7861328125,8.8076171875,0,2.5380859375,1.1943359375,3.5830078125,4.478515625,3.5830078125,4.9755859375,0,12.33984375-1.990234375,21.4951171875-5.8720703125l1.6923828125,3.9814453125c-9.50390625,4.0302734375-17.615234375,6.169921875-23.1875,6.169921875ZM316.1339679654,361.4964363591c5.623046875.19921875,10.001953125-1.5419921875,10.001953125-3.9306640625,0-.845703125-.7958984375-1.14453125-1.54296875-1.14453125-2.6865234375,0-5.8212890625,2.08984375-8.458984375,5.0751953125Z" fill="#1d1d1b" stroke="#1d1d1b" stroke-miterlimit="10" stroke-width="1.8919398785"/>
    <path d="M411.7296710904,382.2464363591c-5.6728515625,0-8.95703125-2.8369140625-8.95703125-7.8623046875,0-10.05078125,10.201171875-22.2421875,18.66015625-22.2421875,3.681640625-.0498046875,6.0205078125,1.8408203125,6.0205078125,5.224609375,0,5.9716796875-7.912109375,9.404296875-17.416015625,8.2099609375-1.69140625,2.88671875-2.7861328125,6.021484375-2.7861328125,8.8076171875,0,2.5380859375,1.1943359375,3.5830078125,4.478515625,3.5830078125,13.28515625,0,39.3095703125-13.7333984375,49.2607421875-21.1474609375l2.5380859375,3.4326171875c-10.150390625,7.513671875-37.3193359375,21.994140625-51.798828125,21.994140625ZM412.9738117154,361.4964363591c5.6220703125.19921875,10.0009765625-1.5419921875,10.0009765625-3.880859375,0-.8955078125-.646484375-1.1943359375-1.5419921875-1.1943359375-2.6376953125,0-5.7724609375,2.08984375-8.458984375,5.0751953125Z" fill="#1d1d1b" stroke="#1d1d1b" stroke-miterlimit="10" stroke-width="1.8919398785"/>
    <path d="M419.6954914029,412.9476082341c0-8.16015625,18.162109375-18.908203125,43.1904296875-31.099609375-.1494140625-5.1748046875-.8955078125-10.05078125-1.6416015625-14.927734375-.7958984375-5.025390625-1.5927734375-10.1005859375-1.5927734375-15.1767578125,0-10.99609375,9.603515625-20.8486328125,20.2021484375-20.8486328125,3.8818359375,0,6.8173828125,2.5380859375,6.8173828125,5.921875,0,6.0703125-7.115234375,13.3349609375-21.9931640625,22.7392578125.2978515625,2.189453125.646484375,4.37890625.9951171875,6.66796875.646484375,4.279296875,1.3427734375,8.7578125,1.591796875,13.5341796875,15.0771484375-7.21484375,32.2939453125-14.927734375,49.361328125-22.888671875l2.3876953125,3.3828125c-18.1611328125,8.4599609375-36.2236328125,16.5703125-51.6494140625,23.984375-.447265625,20.998046875-15.57421875,36.6220703125-35.6767578125,36.6220703125-7.1162109375,0-11.9921875-3.134765625-11.9921875-7.9111328125ZM431.6876789029,416.5794441716c16.91796875,0,29.7060546875-12.638671875,31.0986328125-30.1533203125-22.7392578125,11.0458984375-38.6123046875,20.3515625-38.6123046875,26.521484375,0,2.08984375,2.8359375,3.6318359375,7.513671875,3.6318359375ZM464.2296710904,354.7298347966c11.9921875-7.8623046875,17.962890625-13.9326171875,17.962890625-17.9130859375,0-.9462890625-.845703125-1.642578125-2.3388671875-1.642578125-8.1103515625,0-15.7236328125,7.912109375-15.7236328125,16.5693359375,0,.99609375.0498046875,1.9912109375.099609375,2.986328125Z" fill="#1d1d1b" stroke="#1d1d1b" stroke-miterlimit="10" stroke-width="1.8919398785"/>
    <path d="M491.8497882779,411.0569832341c-18.0625,35.080078125-33.2392578125,70.607421875-32.7919921875,90.0634765625l-4.4775390625.099609375c-.9951171875-42.8427734375,70.4580078125-159.626953125,87.82421875-186.1484375l3.78125,2.388671875c-6.0205078125,9.205078125-18.6591796875,29.357421875-32.4423828125,53.4404296875,11.693359375-13.484375,22.9384765625-21.4453125,31.8955078125-21.4453125,5.1748046875,0,8.16015625,2.8857421875,8.16015625,7.9609375,0,2.587890625-.9453125,6.0205078125-2.736328125,9.50390625,13.484375-.9951171875,28.4619140625-1.2939453125,39.0107421875-10.05078125l2.736328125,3.3828125c-12.140625,9.9521484375-30.103515625,9.90234375-44.5341796875,11.1962890625-4.2294921875,5.6728515625-10.7470703125,10.44921875-19.0576171875,10.44921875-4.626953125,0-7.76171875-2.5380859375-7.76171875-6.46875,0-5.224609375,8.259765625-6.369140625,23.734375-8.0107421875.298828125-.0498046875.5478515625-.0498046875.8466796875-.099609375,2.1396484375-3.4833984375,3.283203125-7.1650390625,3.283203125-9.90234375,0-2.6865234375-.9951171875-3.681640625-3.681640625-3.681640625-6.9169921875,0-26.8701171875,8.359375-53.7392578125,57.322265625h-.0498046875ZM529.2179523404,377.6185066716c5.32421875,0,9.7529296875-2.3388671875,13.037109375-5.5234375-11.9921875,1.2939453125-16.3203125,2.0400390625-16.3203125,3.83203125,0,.9453125,1.044921875,1.69140625,3.283203125,1.69140625Z" fill="#1d1d1b" stroke="#1d1d1b" stroke-miterlimit="10" stroke-width="1.8919398785"/>
    <path d="M590.5275226529,382.2464363591c-5.6728515625,0-8.95703125-2.8369140625-8.95703125-7.8623046875,0-10.05078125,10.201171875-22.2421875,18.66015625-22.2421875,3.681640625-.0498046875,6.0205078125,1.8408203125,6.0205078125,5.224609375,0,5.9716796875-7.912109375,9.404296875-17.416015625,8.2099609375-1.69140625,2.88671875-2.7861328125,6.021484375-2.7861328125,8.8076171875,0,2.5380859375,1.1943359375,3.5830078125,4.478515625,3.5830078125,13.28515625,0,39.3095703125-13.7333984375,49.2607421875-21.1474609375l2.5380859375,3.4326171875c-10.150390625,7.513671875-37.3193359375,21.994140625-51.798828125,21.994140625ZM591.7716632779,361.4964363591c5.6220703125.19921875,10.0009765625-1.5419921875,10.0009765625-3.880859375,0-.8955078125-.646484375-1.1943359375-1.5419921875-1.1943359375-2.6376953125,0-5.7724609375,2.08984375-8.458984375,5.0751953125Z" fill="#1d1d1b" stroke="#1d1d1b" stroke-miterlimit="10" stroke-width="1.8919398785"/>
    <path d="M624.7658039029,388.6653816716c3.2841796875-5.8720703125,14.48046875-28.810546875,18.3115234375-41.0517578125l4.279296875,1.2939453125c-1.3935546875,4.478515625-3.6826171875,10.1015625-6.169921875,15.7734375,6.5185546875-7.314453125,13.384765625-11.8427734375,19.1572265625-11.8427734375,4.6767578125,0,7.015625,3.2841796875,8.806640625,5.822265625,1.9912109375,2.8359375,3.6328125,5.025390625,7.5634765625,5.025390625,4.5283203125,0,13.0869140625-2.935546875,19.4560546875-6.81640625l2.6865234375,3.3828125c-7.015625,4.279296875-16.7685546875,7.712890625-22.142578125,7.712890625-6.3193359375,0-9.10546875-3.98046875-11.1953125-6.8662109375-1.791015625-2.48828125-2.8857421875-3.9814453125-5.1748046875-3.9814453125-7.5634765625,0-19.705078125,11.5947265625-28.263671875,26.8701171875-1.3427734375,2.6875-2.4873046875,4.92578125-3.333984375,6.568359375l-3.98046875-1.890625Z" fill="#1d1d1b" stroke="#1d1d1b" stroke-miterlimit="10" stroke-width="1.8919398785"/>
    <path d="M726.8781085904,370.6028816716c-6.8662109375,2.2890625-13.4345703125,3.5322265625-19.1572265625,3.5322265625h-2.3388671875c-3.9306640625,2.787109375-8.5087890625,4.6279296875-12.73828125,4.6279296875-4.626953125,0-7.9111328125-2.8857421875-7.9111328125-7.0654296875,0-1.990234375.845703125-4.279296875,2.3388671875-6.568359375-.19921875-.8955078125-.298828125-1.9404296875-.298828125-3.0849609375,0-9.2060546875,7.5634765625-16.37109375,17.0673828125-16.37109375,7.6630859375,0,12.5888671875,4.1796875,12.5888671875,10.7978515625,0,4.478515625-2.4384765625,9.3046875-6.1201171875,13.2861328125,4.5771484375-.298828125,9.6533203125-1.3935546875,15.17578125-3.234375,3.1845703125-1.044921875,4.130859375,3.1845703125,1.3935546875,4.080078125ZM692.6437335904,374.4837410466c1.5927734375,0,3.234375-.3486328125,4.876953125-.9951171875-3.43359375-.546875-6.169921875-1.5927734375-8.01171875-3.43359375-.19921875.59765625-.2978515625,1.14453125-.2978515625,1.642578125,0,1.7412109375,1.2431640625,2.7861328125,3.4326171875,2.7861328125ZM692.3458820279,365.3782722966c1.9404296875,2.537109375,6.169921875,3.9306640625,11.6435546875,4.3291015625,4.52734375-3.6328125,7.9609375-8.8076171875,7.9609375-13.236328125,0-4.1298828125-2.8857421875-6.5185546875-8.1103515625-6.5185546875-6.4189453125,0-11.5439453125,4.3291015625-12.439453125,10.2509765625.4970703125-.4482421875,1.044921875-.896484375,1.6416015625-1.34375,3.234375-2.48828125,6.916015625-3.931640625,10.1005859375-3.931640625,1.4931640625,0,2.986328125.298828125,4.2294921875.896484375,1.8916015625.9453125.099609375,4.7763671875-1.890625,3.880859375-.7958984375-.3486328125-1.392578125-.498046875-2.3388671875-.498046875-2.23828125,0-4.7763671875,1.044921875-7.4140625,3.0361328125-1.2431640625.9453125-2.3876953125,2.0400390625-3.3828125,3.134765625Z" fill="#1d1d1b" stroke="#1d1d1b" stroke-miterlimit="10" stroke-width="1.8919398785"/>
    <path d="M750.4699054654,381.0022957341c.3984375-1.791015625,2.1396484375-3.1845703125,3.9306640625-3.1845703125,1.841796875,0,3.03515625,1.3935546875,2.587890625,3.1845703125-.4482421875,1.69140625-2.2392578125,3.1845703125-3.9306640625,3.1845703125-1.841796875,0-2.986328125-1.4931640625-2.587890625-3.1845703125ZM813.6632648404,296.9095222966c-14.8779296875,18.1123046875-37.7666015625,50.1572265625-52.146484375,75.0361328125l-3.8818359375-2.1884765625c14.48046875-24.9794921875,37.568359375-57.2236328125,52.5458984375-75.53515625l3.482421875,2.6875Z" fill="#1d1d1b" stroke="#1d1d1b" stroke-miterlimit="10" stroke-width="1.8919398785"/>
  </g>
</svg>