<?xml version="1.0" encoding="UTF-8"?>
<svg id="Capa_1" data-name="Capa 1" xmlns="http://www.w3.org/2000/svg" viewBox="0 0 1065.7641431409 737.3774323692">
  <g opacity=".1">
    <path d="M213.6857257779,502.2596109157c-5.7724609375,8.435546875-5.658203125,16.5380859375.3330078125,24.296875,5.9912109375,7.7705078125,13.19921875,11.6494140625,21.634765625,11.6494140625h7.98828125v6.6572265625H98.5236164029v-6.6572265625h8.6533203125c13.3134765625,0,25.5146484375-3.431640625,36.6123046875-10.3173828125,11.087890625-6.875,20.189453125-14.7490234375,27.29296875-23.6318359375l42.603515625-1.9970703125ZM265.6095539029,145.4549234157v6.6567382812h-7.98828125c-8.435546875,0-15.5400390625,3.8901367188-21.3017578125,11.6494140625-5.7724609375,7.76953125-5.9912109375,15.6430664062-.666015625,23.6313476562l-53.25390625-1.9970703125c-6.6572265625-8.8720703125-15.7587890625-16.6416015625-27.29296875-23.298828125-11.5458984375-6.6567382812-23.96484375-9.9848632812-37.2783203125-9.9848632812h-8.654296875v-6.6567382812h156.435546875ZM302.8868976529,336.5047281032l13.314453125,27.29296875-133.8017578125,180.3994140625h-41.9384765625l162.42578125-207.6923828125ZM207.0294757779,146.1204507595l277.5888671875,398.0766601562h-53.919921875L154.4406085904,146.1204507595h52.5888671875ZM473.9669757779,146.1204507595l-141.7900390625,197.0415039062-16.6416015625-27.958984375,113.166015625-169.0825195312h45.265625ZM518.5675617154,145.4549234157v6.6567382812h-9.3193359375c-13.3134765625,0-25.62890625,3.328125-36.9453125,9.9848632812-11.31640625,6.6572265625-20.302734375,14.6450195312-26.9599609375,23.96484375l-44.6005859375,1.9970703125c5.3251953125-8.4252929688,5.2109375-16.5278320312-.3330078125-24.2973632812-5.5537109375-7.7592773438-12.76171875-11.6494140625-21.634765625-11.6494140625h-7.9873046875v-6.6567382812h147.7802734375ZM402.0734210904,502.9256265407l54.5859375,1.9970703125c6.6572265625,8.4345703125,15.748046875,16.0908203125,27.29296875,22.9658203125,11.53515625,6.8857421875,23.96484375,10.3173828125,37.2783203125,10.3173828125h8.654296875v6.6572265625h-157.7666015625v-6.6572265625h7.98828125c8.8720703125,0,16.080078125-3.87890625,21.634765625-11.6494140625,5.5439453125-7.7587890625,5.658203125-15.6435546875.33203125-23.630859375Z" fill="#1d1d1b"/>
    <path d="M627.7345539029,194.049161697h-50.591796875c-6.6572265625-15.0815429688-14.8740234375-25.8471679688-24.6298828125-32.28515625-9.767578125-6.4282226562-19.0869140625-9.65234375-27.958984375-9.65234375h-5.3251953125v-6.6567382812h136.4638671875v6.6567382812h-5.3251953125c-7.55078125,0-14.3115234375,3.6611328125-20.302734375,10.9833984375-5.9912109375,7.3227539062-6.771484375,17.640625-2.330078125,30.9541015625ZM740.2345539029,554.1824624782l-183.0625-404.7338867188h52.5888671875l141.7900390625,345.4887695312-11.31640625,59.2451171875ZM740.2345539029,554.1824624782l-4.66015625-45.931640625,152.44140625-360.7993164062h41.9375l-157.7666015625,338.1665039062c-4.8876953125,10.650390625-8.986328125,19.8662109375-12.314453125,27.625-3.3291015625,7.7705078125-6.32421875,15.42578125-8.9873046875,22.9658203125-2.662109375,7.5517578125-4.22265625,13.5322265625-4.6591796875,17.9736328125h-5.9912109375ZM868.7111164029,194.049161697c4.8779296875-13.3134765625,4.2119140625-23.6313476562-1.9970703125-30.9541015625-6.2197265625-7.322265625-13.3134765625-10.9833984375-21.3017578125-10.9833984375h-4.66015625v-6.6567382812h126.4794921875v6.6567382812h-5.3251953125c-9.3203125,0-18.8681640625,3.2241210938-28.625,9.65234375-9.7666015625,6.4379882812-18.2021484375,17.2036132812-25.2958984375,32.28515625h-39.2744140625Z" fill="#1d1d1b"/>
  </g>
  <g>
    <path d="M282.7902179654,421.963224197c-.646484375-1.193359375-1.0947265625-2.736328125-1.34375-4.626953125-13.0361328125,1.890625-24.9287109375,4.7763671875-33.4375,8.259765625-3.03515625,1.244140625-4.5283203125-2.8359375-1.591796875-3.98046875,8.90625-3.4833984375,21.345703125-6.3193359375,34.9306640625-8.259765625.0986328125-2.5380859375.447265625-5.5234375,1.0947265625-8.857421875,4.52734375-23.38671875,19.2060546875-53.142578125,33.0390625-81.1567382812,7.2158203125-14.6293945312,14.181640625-28.810546875,19.4560546875-41.44921875-17.7138671875,2.1396484375-36.423828125,5.8217773438-48.4150390625,10.7973632812-3.234375,1.34375-4.37890625-2.8857421875-1.5927734375-3.98046875,12.837890625-5.0756835938,33.1396484375-8.9565429688,51.798828125-11.1958007812.7470703125-1.890625,1.4931640625-3.7817382812,2.1396484375-5.5727539062.9951171875-2.7368164062,5.17578125-1.443359375,4.1796875,1.3930664062-.3974609375,1.1943359375-.845703125,2.3881835938-1.3427734375,3.6323242188,9.2548828125-.9951171875,17.9130859375-1.4926757812,24.8291015625-1.4926757812,3.8818359375,0,7.4638671875.1494140625,10.1513671875.5473632812,4.92578125.74609375,7.513671875,3.4829101562,6.5185546875,7.3642578125-.5478515625,2.08984375-4.3291015625,2.0400390625-4.279296875,0,.0498046875-1.890625-.498046875-2.7368164062-2.8369140625-3.0849609375-2.4873046875-.3486328125-5.771484375-.5473632812-9.5537109375-.5473632812-7.314453125,0-16.619140625.5473632812-26.521484375,1.5922851562-5.3740234375,13.3354492188-12.8876953125,28.412109375-20.5,43.8872070312-13.8330078125,28.0141601562-28.4130859375,57.1733398438-32.6923828125,80.0620117188-.546875,2.8359375-.845703125,5.32421875-.9951171875,7.513671875,16.5205078125-2.0400390625,34.3837890625-2.63671875,49.361328125-1.14453125,2.537109375.2490234375,2.0400390625,4.578125-.498046875,4.279296875-14.8779296875-1.7412109375-32.5419921875-1.244140625-48.8134765625.7958984375.099609375,1.34375.3984375,2.388671875.796875,3.134765625,1.3427734375,2.388671875-2.587890625,4.37890625-3.8818359375,2.08984375Z" fill="#1d1d1b" stroke="#1d1d1b" stroke-miterlimit="10" stroke-width="1.8919398785"/>
    <path d="M297.6779132779,430.0247476345c0-8.16015625,18.162109375-18.908203125,43.1904296875-31.099609375-.1494140625-5.1748046875-.8955078125-10.05078125-1.6416015625-14.927734375-.7958984375-5.025390625-1.5927734375-10.1005859375-1.5927734375-15.1767578125,0-10.99609375,9.603515625-20.8486328125,20.2021484375-20.8486328125,3.8818359375,0,6.8173828125,2.5380859375,6.8173828125,5.921875,0,6.0703125-7.115234375,13.3349609375-21.9931640625,22.7392578125.2978515625,2.189453125.646484375,4.37890625.9951171875,6.66796875.646484375,4.279296875,1.3427734375,8.7578125,1.591796875,13.5341796875,15.0771484375-7.21484375,32.2939453125-14.927734375,49.361328125-22.888671875l2.3876953125,3.3828125c-18.1611328125,8.4599609375-36.2236328125,16.5703125-51.6494140625,23.984375-.447265625,20.998046875-15.57421875,36.6220703125-35.6767578125,36.6220703125-7.1162109375,0-11.9921875-3.134765625-11.9921875-7.9111328125ZM309.6701007779,433.656583572c16.91796875,0,29.7060546875-12.638671875,31.0986328125-30.1533203125-22.7392578125,11.0458984375-38.6123046875,20.3515625-38.6123046875,26.521484375,0,2.08984375,2.8359375,3.6318359375,7.513671875,3.6318359375ZM342.2120929654,371.806974197c11.9921875-7.8623046875,17.962890625-13.9326171875,17.962890625-17.9130859375,0-.9462890625-.845703125-1.642578125-2.3388671875-1.642578125-8.1103515625,0-15.7236328125,7.912109375-15.7236328125,16.5693359375,0,.99609375.0498046875,1.9912109375.099609375,2.986328125Z" fill="#1d1d1b" stroke="#1d1d1b" stroke-miterlimit="10" stroke-width="1.8919398785"/>
    <path d="M389.4376789029,383.0520913845c0-6.8662109375,8.359375-13.13671875,17.216796875-13.037109375,4.2294921875.0498046875,6.767578125.9453125,9.3046875,2.48828125l-2.4873046875,3.5830078125c-2.041015625-1.244140625-3.6328125-1.7421875-6.8173828125-1.7919921875-6.4189453125-.0498046875-12.73828125,4.4287109375-12.73828125,8.7578125,0,.845703125.4482421875,1.244140625,1.791015625,1.2939453125,7.0166015625.298828125,26.720703125-9.0068359375,32.3935546875-14.9775390625.099609375-.099609375.1494140625-.19921875.248046875-.298828125.2490234375-.2490234375.4482421875-.546875.6474609375-.7958984375l3.681640625,2.388671875c-.248046875.3974609375-.5966796875.7958984375-.9453125,1.1943359375-7.5634765625,8.806640625-12.9375,18.8583984375-12.8876953125,24.033203125.0498046875,2.6865234375,1.34375,4.0302734375,3.8818359375,4.0302734375,9.603515625,0,30.8505859375-10.99609375,50.2060546875-25.9736328125l2.7373046875,3.3828125c-15.4755859375,11.9423828125-40.0556640625,26.8701171875-52.943359375,26.8701171875-5.025390625,0-8.3095703125-3.234375-8.359375-8.3095703125-.0498046875-3.9306640625,2.189453125-9.703125,5.9208984375-15.8232421875-8.658203125,4.7763671875-19.306640625,8.8076171875-24.7802734375,8.55859375-3.58203125-.1494140625-6.0703125-2.2890625-6.0703125-5.5732421875Z" fill="#1d1d1b" stroke="#1d1d1b" stroke-miterlimit="10" stroke-width="1.8919398785"/>
    <path d="M468.8117023404,392.506192947c0-15.0771484375,14.08203125-46.9228515625,37.26953125-73.1455078125,35.0302734375-39.6577148438,70.1103515625-62.5966796875,95.8857421875-62.5966796875,9.603515625,0,15.2255859375,4.7768554688,15.2255859375,13.037109375,0,12.6884765625-21.296875,33.1391601562-61.302734375,59.412109375-25.4765625,16.71875-56.0283203125,34.9306640625-79.265625,47.3203125-2.189453125,6.369140625-3.333984375,11.8427734375-3.333984375,15.97265625,0,4.4287109375,1.34375,6.26953125,3.880859375,6.26953125,5.423828125,0,10.2998046875-5.1748046875,13.583984375-10.7978515625-1.69140625-2.3876953125-2.5869140625-5.3740234375-2.5869140625-8.8564453125,0-5.3740234375,2.9853515625-8.7578125,7.115234375-8.7578125,3.03515625,0,4.3291015625,1.990234375,4.3291015625,4.7275390625,0,2.7861328125-1.34375,7.3642578125-3.7314453125,12.041015625,2.2880859375,1.990234375,5.771484375,3.03515625,10.3994140625,3.03515625,16.1220703125,0,37.169921875-11.5439453125,41.796875-16.220703125l2.587890625,3.3828125c-5.025390625,5.076171875-27.0693359375,17.1171875-44.384765625,17.1171875-5.224609375,0-9.50390625-1.2431640625-12.5888671875-3.482421875-4.0810546875,6.4189453125-10.1015625,12.0908203125-17.1171875,12.0908203125-4.9765625,0-7.7626953125-3.8310546875-7.7626953125-10.548828125ZM478.8136554654,370.7122476345c22.0927734375-12.2412109375,50.5546875-29.2587890625,74.587890625-45.08203125,38.1650390625-25.1279296875,59.3125-45.1811523438,59.3125-55.8291015625,0-5.822265625-3.58203125-8.7578125-10.7470703125-8.7578125-24.2333984375,0-58.3671875,22.4912109375-92.501953125,61.1538085938-14.1318359375,16.0219726562-24.73046875,33.8852539062-30.6513671875,48.5151367188ZM493.1935382779,383.0520913845c1.244140625-2.9853515625,1.9404296875-5.72265625,1.9404296875-7.4638671875,0-.6962890625-.19921875-.9453125-.646484375-.9453125-.6962890625,0-1.8408203125,1.3935546875-1.8408203125,4.478515625,0,1.4423828125.1982421875,2.736328125.546875,3.9306640625Z" fill="#1d1d1b" stroke="#1d1d1b" stroke-miterlimit="10" stroke-width="1.8919398785"/>
    <path d="M548.5324054654,399.3235757595c-5.6728515625,0-8.95703125-2.8369140625-8.95703125-7.8623046875,0-10.05078125,10.201171875-22.2421875,18.66015625-22.2421875,3.681640625-.0498046875,6.0205078125,1.8408203125,6.0205078125,5.224609375,0,5.9716796875-7.912109375,9.404296875-17.416015625,8.2099609375-1.69140625,2.88671875-2.7861328125,6.021484375-2.7861328125,8.8076171875,0,2.5380859375,1.1943359375,3.5830078125,4.478515625,3.5830078125,13.28515625,0,39.3095703125-13.7333984375,49.2607421875-21.1474609375l2.5380859375,3.4326171875c-10.150390625,7.513671875-37.3193359375,21.994140625-51.798828125,21.994140625ZM549.7765460904,378.5735757595c5.6220703125.19921875,10.0009765625-1.5419921875,10.0009765625-3.880859375,0-.8955078125-.646484375-1.1943359375-1.5419921875-1.1943359375-2.6376953125,0-5.7724609375,2.08984375-8.458984375,5.0751953125Z" fill="#1d1d1b" stroke="#1d1d1b" stroke-miterlimit="10" stroke-width="1.8919398785"/>
    <path d="M590.2843585904,402.3587320095c0-25.4765625,26.7705078125-70.658203125,62.0498046875-104.9912109375,26.0732421875-25.3774414062,51.4501953125-39.458984375,71.5029296875-39.458984375,10.1513671875,0,16.8681640625,5.3740234375,16.8681640625,13.583984375,0,13.9326171875-16.1708984375,31.5971679688-48.1162109375,53.2919921875-31.0498046875,21.0478515625-69.9609375,40.951171875-91.6064453125,52.1474609375-3.98046875,9.703125-6.2197265625,18.41015625-6.2197265625,25.4267578125,0,6.0703125,2.2890625,9.3544921875,6.46875,9.3544921875,13.484375,0,38.7119140625-14.0322265625,68.8662109375-37.7666015625l2.7861328125,3.3828125c-31.048828125,24.431640625-56.7744140625,38.6630859375-71.65234375,38.6630859375-6.8173828125,0-10.947265625-5.224609375-10.947265625-13.6337890625ZM603.7687335904,370.662442947c22.2421875-11.5439453125,57.5712890625-30.0048828125,86.33203125-49.4604492188,30.501953125-20.6499023438,46.126953125-37.568359375,46.126953125-49.7094726562,0-5.7221679688-4.6279296875-9.3046875-12.390625-9.3046875-18.7587890625,0-43.041015625,13.6337890625-68.41796875,38.2646484375-22.2919921875,21.5952148438-41.150390625,47.818359375-51.650390625,70.2099609375Z" fill="#1d1d1b" stroke="#1d1d1b" stroke-miterlimit="10" stroke-width="1.8919398785"/>
    <path d="M662.8390460904,402.3587320095c0-25.4765625,26.7705078125-70.658203125,62.0498046875-104.9912109375,26.0732421875-25.3774414062,51.4501953125-39.458984375,71.5029296875-39.458984375,10.1513671875,0,16.8681640625,5.3740234375,16.8681640625,13.583984375,0,13.9326171875-16.1708984375,31.5971679688-48.1162109375,53.2919921875-31.0498046875,21.0478515625-69.9609375,40.951171875-91.6064453125,52.1474609375-3.98046875,9.703125-6.2197265625,18.41015625-6.2197265625,25.4267578125,0,6.0703125,2.2890625,9.3544921875,6.46875,9.3544921875,13.484375,0,38.7119140625-14.0322265625,68.8662109375-37.7666015625l2.7861328125,3.3828125c-31.048828125,24.431640625-56.7744140625,38.6630859375-71.65234375,38.6630859375-6.8173828125,0-10.947265625-5.224609375-10.947265625-13.6337890625ZM676.3234210904,370.662442947c22.2421875-11.5439453125,57.5712890625-30.0048828125,86.33203125-49.4604492188,30.501953125-20.6499023438,46.126953125-37.568359375,46.126953125-49.7094726562,0-5.7221679688-4.6279296875-9.3046875-12.390625-9.3046875-18.7587890625,0-43.041015625,13.6337890625-68.41796875,38.2646484375-22.2919921875,21.5952148438-41.150390625,47.818359375-51.650390625,70.2099609375Z" fill="#1d1d1b" stroke="#1d1d1b" stroke-miterlimit="10" stroke-width="1.8919398785"/>
    <path d="M781.4210773404,370.662442947c-.298828125.447265625-.6474609375.8955078125-1.0947265625,1.3427734375-7.4638671875,8.7578125-12.837890625,18.759765625-12.73828125,23.884765625.0498046875,2.6865234375,1.34375,4.0302734375,3.880859375,4.0302734375,4.080078125,0,9.8525390625-1.8408203125,22.2421875-7.5634765625,2.587890625-1.1943359375,4.677734375,2.6376953125,1.890625,3.8818359375-12.9365234375,5.771484375-19.35546875,7.9609375-24.1328125,7.9609375-5.025390625,0-8.3095703125-3.234375-8.359375-8.3095703125-.0498046875-3.7314453125,1.9404296875-9.0068359375,5.423828125-14.927734375-8.7578125,5.2744140625-19.6552734375,10.001953125-26.421875,10.001953125-3.9306640625,0-6.0205078125-2.189453125-6.0205078125-5.921875,0-7.76171875,9.751953125-15.126953125,19.3056640625-15.02734375,5.0263671875.0498046875,9.2060546875,1.244140625,15.3759765625,4.5283203125,2.3388671875-1.6416015625,4.2294921875-3.234375,5.623046875-4.677734375.447265625-.4970703125.8955078125-1.044921875,1.3427734375-1.591796875,1.443359375-2.08984375,5.0751953125.3486328125,3.6826171875,2.388671875ZM742.8077960904,386.883146072c5.822265625,0,15.873046875-4.5771484375,23.8349609375-9.6025390625-4.478515625-2.189453125-7.4638671875-2.9365234375-11.24609375-2.986328125-7.3642578125-.099609375-14.23046875,4.37890625-14.529296875,10.84765625-.0498046875,1.044921875.646484375,1.7412109375,1.9404296875,1.7412109375Z" fill="#1d1d1b" stroke="#1d1d1b" stroke-miterlimit="10" stroke-width="1.8919398785"/>
  </g>
  <g>
    <path d="M387.2443195279,624.6404702907h-.1572265625c-.03515625-.9086914062-.376953125-1.6865234375-1.0234375-2.333984375-.6474609375-.646484375-1.4248046875-.970703125-2.333984375-.970703125h-.681640625v-.5244140625h4.1962890625v3.8291015625ZM387.2443195279,653.7000406032v3.8291015625h-4.1962890625v-.5244140625h.681640625c.9091796875,0,1.6865234375-.3227539062,2.333984375-.9702148438.646484375-.6469726562.98828125-1.4243164062,1.0234375-2.3344726562h.1572265625ZM390.4962726529,620.8113687282v36.7177734375h-3.4091796875v-36.7177734375h3.4091796875ZM390.3390460904,624.6404702907v-3.8291015625h4.1962890625v.5244140625h-.681640625c-.91015625,0-1.6875.32421875-2.3349609375.970703125-.6474609375.6474609375-.98828125,1.4252929688-1.0224609375,2.333984375h-.1572265625ZM404.6593585904,655.9031656032v1.6259765625h-14.3203125v-1.6259765625h14.3203125ZM407.8585773404,649.0320718532l-3.0419921875,8.4970703125h-8.7080078125l1.888671875-1.6259765625c1.853515625,0,3.365234375-.2880859375,4.537109375-.865234375s2.125-1.3901367188,2.859375-2.439453125c.734375-1.048828125,1.380859375-2.2373046875,1.9404296875-3.56640625h.5244140625Z" fill="#1d1d1b"/>
    <path d="M416.1466632779,629.361661697h-.1044921875c-.0361328125-.8041992188-.3330078125-1.46875-.892578125-1.9936523438-.5595703125-.5244140625-1.2763671875-.7866210938-2.150390625-.7866210938h-.734375v-.5244140625h4.5634765625l-.681640625,3.3046875ZM416.1466632779,654.172208572l.681640625,3.3569335938h-4.5634765625v-.5244140625h.734375c.8740234375,0,1.5908203125-.279296875,2.150390625-.8388671875s.8564453125-1.2236328125.892578125-1.9936523438h.1044921875ZM419.3986164029,626.056974197v31.4721679688h-3.3564453125v-31.4721679688h3.3564453125ZM433.4562335904,626.056974197v1.6259765625h-14.162109375v-1.6259765625h14.162109375ZM431.0441242154,641.0066812282v1.5732421875h-11.75v-1.5732421875h11.75ZM433.5089679654,655.9031656032l-.1044921875,1.6259765625h-14.1103515625v-1.6259765625h14.21484375ZM436.4464679654,650.0281656032l-2.884765625,7.5009765625h-7.9736328125l1.7841796875-1.6259765625c1.748046875,0,3.1552734375-.2529296875,4.2216796875-.7607421875,1.06640625-.505859375,1.9326171875-1.2060546875,2.5966796875-2.09765625s1.2412109375-1.896484375,1.7314453125-3.0166015625h.5244140625ZM433.4562335904,625.2176187282v1.3637695312l-5.9794921875-.5244140625c1.083984375,0,2.2373046875-.0961914062,3.4619140625-.2885742188,1.2236328125-.1918945312,2.0634765625-.3754882812,2.517578125-.55078125ZM431.0441242154,638.121427322v2.9897460938h-2.728515625v-.1044921875c.734375,0,1.2763671875-.2182617188,1.626953125-.65625.3486328125-.4365234375.5244140625-.9521484375.5244140625-1.5473632812v-.681640625h.5771484375ZM431.0441242154,642.474942947v2.9897460938h-.5771484375v-.681640625c0-.5942382812-.17578125-1.1098632812-.5244140625-1.5473632812-.3505859375-.4370117188-.892578125-.6557617188-1.626953125-.6557617188v-.1049804688h2.728515625ZM433.4562335904,627.525724197v3.619140625h-.5771484375v-.7866210938c0-.734375-.2353515625-1.3637695312-.7080078125-1.888671875-.4716796875-.5244140625-1.1103515625-.7866210938-1.9140625-.7866210938v-.1572265625h3.19921875Z" fill="#1d1d1b"/>
    <path d="M438.8058429654,625.1648843532c.314453125.10546875.794921875.2280273438,1.4423828125.3671875.646484375.140625,1.3720703125.2543945312,2.1767578125.3413085938.8037109375.0874023438,1.5556640625.1313476562,2.255859375.1313476562l-5.875.5244140625v-1.3642578125ZM467.6027179654,626.0047281032v1.5732421875h-28.796875v-1.5732421875h28.796875ZM442.0050617154,627.472989822v.1049804688c-.8046875.03515625-1.4423828125.306640625-1.9140625.8129882812-.47265625.5073242188-.7080078125,1.1279296875-.7080078125,1.8623046875v.8393554688h-.5771484375v-3.6196289062h3.19921875ZM451.6046710904,654.172208572v3.3569335938h-3.8291015625v-.5244140625h.62890625c.83984375,0,1.5556640625-.279296875,2.150390625-.8388671875s.9091796875-1.2236328125.9443359375-1.9936523438h.10546875ZM454.9093585904,626.2142007595v31.3149414062h-3.41015625v-31.3149414062h3.41015625ZM454.7511554654,654.172208572h.158203125c.0341796875.7700195312.3486328125,1.4340820312.943359375,1.9936523438s1.3115234375.8388671875,2.1513671875.8388671875h.5771484375v.5244140625h-3.830078125v-3.3569335938ZM467.6027179654,625.1648843532v1.3642578125l-5.875-.5244140625c.69921875,0,1.4423828125-.0439453125,2.2294921875-.1313476562.787109375-.0869140625,1.5126953125-.2006835938,2.1767578125-.3413085938.6640625-.1391601562,1.154296875-.26171875,1.46875-.3671875ZM467.6027179654,627.472989822v3.6196289062h-.5771484375v-.8393554688c0-.734375-.2353515625-1.3549804688-.7080078125-1.8623046875-.4716796875-.5063476562-1.1103515625-.7778320312-1.9140625-.8129882812v-.1049804688h3.19921875Z" fill="#1d1d1b"/>
    <path d="M478.8800617154,618.0310952907c.734375-.8037109375,1.46875-1.599609375,2.203125-2.3862304688.734375-.787109375,1.4775390625-1.5556640625,2.2294921875-2.3081054688.751953125-.7514648438,1.4951171875-1.4770507812,2.2294921875-2.1767578125.384765625.4194335938.7685546875.857421875,1.154296875,1.3115234375.3837890625.4545898438.7158203125.9438476562.99609375,1.4682617188-.9443359375.5249023438-1.888671875,1.0493164062-2.83203125,1.5737304688-.9443359375.5244140625-1.880859375,1.0229492188-2.806640625,1.4951171875-.9267578125.4716796875-1.8623046875.9360351562-2.806640625,1.3896484375l-.3671875-.3671875Z" fill="#1d1d1b"/>
    <path d="M503.6388507779,625.322599197c.978515625,0,1.8359375.03515625,2.5703125.1049804688.734375.0703125,1.3720703125.1489257812,1.9140625.2358398438.5419921875.087890625,1.0146484375.1928710938,1.4169921875.3149414062.4013671875.123046875.759765625.2358398438,1.0751953125.3408203125l.0517578125,5.1928710938h-.62890625c0-1.43359375-.490234375-2.5610351562-1.46875-3.3833007812-.9794921875-.8212890625-2.5009765625-1.232421875-4.5634765625-1.232421875-1.7490234375,0-3.244140625.4809570312-4.4853515625,1.4423828125-1.2412109375.9619140625-1.8447265625,2.142578125-1.8095703125,3.5405273438,0,.455078125.060546875.91796875.18359375,1.3901367188.1220703125.4721679688.33203125.9360351562.6298828125,1.3901367188.296875.4545898438.7080078125.9096679688,1.232421875,1.3637695312l10.595703125,8.1826171875c.8037109375.6650390625,1.3984375,1.5131835938,1.783203125,2.5439453125.384765625,1.0322265625.5947265625,2.0546875.6298828125,3.0688476562.0341796875,1.5390625-.3671875,2.9555664062-1.2060546875,4.2485351562-.83984375,1.2944335938-1.9677734375,2.3173828125-3.3837890625,3.0688476562s-2.9814453125,1.1274414062-4.6943359375,1.1274414062c-1.0146484375,0-2.107421875-.0874023438-3.2783203125-.26171875-1.171875-.17578125-2.2646484375-.4462890625-3.2783203125-.8134765625-1.0146484375-.3671875-1.8544921875-.830078125-2.5185546875-1.3896484375-.1044921875-.4892578125-.1572265625-1.1103515625-.1572265625-1.8623046875s.060546875-1.5478515625.18359375-2.38671875c.1220703125-.8393554688.2890625-1.5908203125.498046875-2.255859375h.6298828125c-.1396484375,1.57421875.0869140625,2.9204101562.681640625,4.0390625.5947265625,1.1201171875,1.46875,1.9672851562,2.623046875,2.5439453125,1.154296875.5771484375,2.5.8486328125,4.0390625.8134765625,2.16796875-.0698242188,3.8720703125-.6206054688,5.1142578125-1.65234375,1.2412109375-1.03125,1.8623046875-2.404296875,1.8623046875-4.1176757812,0-.8393554688-.1494140625-1.6000976562-.4462890625-2.2817382812-.296875-.6821289062-.7783203125-1.3193359375-1.4423828125-1.9150390625l-10.4912109375-8.0776367188c-.978515625-.8393554688-1.6435546875-1.7651367188-1.9931640625-2.7797851562-.349609375-1.0141601562-.5244140625-1.9755859375-.5244140625-2.8852539062,0-1.43359375.384765625-2.7275390625,1.154296875-3.8813476562.7685546875-1.154296875,1.8095703125-2.072265625,3.12109375-2.75390625,1.3115234375-.6821289062,2.7705078125-1.0229492188,4.3798828125-1.0229492188ZM510.5626789029,625.7947671657l.052734375.9438476562h-3.724609375v-.9438476562h3.671875Z" fill="#1d1d1b"/>
    <path d="M535.4777179654,629.361661697h-.1044921875c-.0361328125-.8041992188-.341796875-1.46875-.91796875-1.9936523438-.5771484375-.5244140625-1.28515625-.7866210938-2.125-.7866210938h-.734375v-.5244140625h4.5634765625l-.681640625,3.3046875ZM535.4777179654,654.172208572l.681640625,3.3569335938h-4.5634765625v-.5244140625h.734375c.83984375,0,1.5478515625-.279296875,2.125-.8388671875.576171875-.5595703125.8818359375-1.2236328125.91796875-1.9936523438h.1044921875ZM538.7296710904,626.056974197v31.4721679688h-3.3564453125v-31.4721679688h3.3564453125ZM538.5724445279,654.172208572h.1044921875c.03515625.7700195312.341796875,1.4340820312.91796875,1.9936523438.5771484375.5595703125,1.28515625.8388671875,2.125.8388671875h.734375v.5244140625h-4.5634765625l.681640625-3.3569335938ZM543.8702960904,626.056974197c2.447265625,0,4.5634765625.3588867188,6.3466796875,1.0751953125,1.7841796875.7172851562,3.1650390625,1.7490234375,4.14453125,3.0947265625.978515625,1.3466796875,1.46875,2.9467773438,1.46875,4.7998046875,0,1.9931640625-.4462890625,3.6977539062-1.337890625,5.1142578125-.8916015625,1.416015625-2.072265625,2.5004882812-3.541015625,3.251953125-1.46875.7524414062-3.0947265625,1.1196289062-4.8779296875,1.1015625-1.783203125-.0170898438-3.56640625-.4633789062-5.3505859375-1.3374023438v-.5244140625c1.154296875.2094726562,2.185546875.3061523438,3.0947265625.2880859375.9091796875-.0170898438,1.87109375-.1743164062,2.8857421875-.4716796875,1.013671875-.296875,1.966796875-.84765625,2.8583984375-1.65234375.8916015625-.8041992188,1.599609375-1.9580078125,2.1240234375-3.4619140625.1396484375-.384765625.236328125-.83984375.2890625-1.3642578125.0517578125-.5244140625.078125-1.013671875.078125-1.46875,0-2.1323242188-.734375-3.8110351562-2.203125-5.03515625-1.46875-1.2236328125-3.4970703125-1.8359375-6.083984375-1.8359375h-5.140625c-.17578125-.5249023438-.3671875-1.0493164062-.5771484375-1.5737304688h5.822265625Z" fill="#1d1d1b"/>
    <path d="M562.3341632779,653.7000406032c-.384765625,1.0493164062-.3330078125,1.8623046875.1572265625,2.439453125.4892578125.5771484375,1.048828125.865234375,1.6787109375.865234375h.419921875v.5244140625h-10.01953125v-.5244140625h.419921875c.734375,0,1.486328125-.2529296875,2.255859375-.7607421875.7685546875-.5063476562,1.43359375-1.3544921875,1.9931640625-2.5439453125h3.0947265625ZM572.4581867154,625.322599197l.3671875,3.619140625-12.0126953125,28.4301757812h-3.3046875l12.431640625-26.646484375c.384765625-.8393554688.7080078125-1.564453125.970703125-2.1767578125.2626953125-.6118164062.498046875-1.21484375.7080078125-1.8100585938.2099609375-.5942382812.33203125-1.0659179688.3671875-1.416015625h.47265625ZM578.6476398404,645.3074624782v1.5737304688h-13.900390625v-1.5737304688h13.900390625ZM572.4581867154,625.322599197l14.4248046875,31.8920898438h-4.14453125l-11.1728515625-27.2236328125.892578125-4.6684570312ZM581.3224445279,653.7000406032h3.986328125c.5244140625,1.189453125,1.171875,2.0375976562,1.94140625,2.5439453125.7685546875.5078125,1.5029296875.7607421875,2.203125.7607421875h.4189453125v.5244140625h-10.7529296875v-.5244140625h.419921875c.59375,0,1.1357421875-.2880859375,1.6259765625-.865234375.4892578125-.5771484375.5419921875-1.3901367188.1572265625-2.439453125Z" fill="#1d1d1b"/>
    <path d="M596.3234210904,629.361661697h-.1044921875c-.03515625-.8041992188-.3330078125-1.46875-.8916015625-1.9936523438-.5595703125-.5244140625-1.2587890625-.7866210938-2.0986328125-.7866210938h-.734375v-.5244140625h4.458984375l-.6298828125,3.3046875ZM596.3234210904,654.172208572l.6298828125,3.3569335938h-4.458984375v-.5244140625h.734375c.83984375,0,1.5390625-.279296875,2.0986328125-.8388671875.55859375-.5595703125.8564453125-1.2236328125.8916015625-1.9936523438h.1044921875ZM599.5236164029,626.056974197v31.4721679688h-3.357421875v-31.4721679688h3.357421875ZM599.3663898404,654.172208572h.1572265625c.0341796875.7700195312.33203125,1.4340820312.8916015625,1.9936523438.55859375.5595703125,1.2587890625.8388671875,2.09765625.8388671875h.6826171875l.0517578125.5244140625h-4.5107421875l.6298828125-3.3569335938ZM605.6603351529,626.056974197c1.6435546875,0,3.12109375.1923828125,4.4326171875.5766601562,1.3115234375.3857421875,2.4296875.9443359375,3.357421875,1.6787109375.92578125.734375,1.6337890625,1.6259765625,2.1240234375,2.6752929688.4892578125,1.0493164062.734375,2.23828125.734375,3.5668945312,0,1.46875-.349609375,2.8325195312-1.048828125,4.0913085938-.7001953125,1.2587890625-1.6708984375,2.2905273438-2.9111328125,3.0947265625-1.2421875.8051757812-2.6494140625,1.2944335938-4.22265625,1.46875.59375.2451171875,1.28515625.7866210938,2.0712890625,1.6264648438.787109375.8388671875,1.4599609375,1.6611328125,2.01953125,2.46484375.9091796875,1.224609375,1.72265625,2.2822265625,2.439453125,3.173828125s1.4248046875,1.7397460938,2.1240234375,2.5439453125c.734375.8046875,1.4072265625,1.50390625,2.01953125,2.0981445312.611328125.5952148438,1.2763671875,1.0581054688,1.9931640625,1.3901367188.716796875.3325195312,1.5478515625.498046875,2.4921875.498046875v.5244140625h-1.6259765625c-1.923828125,0-3.5068359375-.244140625-4.7470703125-.734375-1.2421875-.4892578125-2.248046875-1.0922851562-3.0166015625-1.8095703125-.76953125-.7158203125-1.4345703125-1.4072265625-1.9931640625-2.0717773438-.1396484375-.1743164062-.4638671875-.6206054688-.970703125-1.3374023438s-1.0576171875-1.4951171875-1.65234375-2.3344726562-1.13671875-1.6000976562-1.6259765625-2.2817382812c-.490234375-.681640625-.7861328125-1.0927734375-.8916015625-1.232421875-.7001953125-.9091796875-1.50390625-1.7221679688-2.4130859375-2.439453125-.9091796875-.7158203125-1.87109375-1.0751953125-2.884765625-1.0751953125v-.5244140625c1.119140625.03515625,2.115234375.03515625,2.990234375,0,.978515625-.0341796875,1.9580078125-.11328125,2.9375-.236328125.978515625-.1220703125,1.896484375-.498046875,2.75390625-1.1274414062.8564453125-.6293945312,1.529296875-1.6787109375,2.01953125-3.1474609375.138671875-.3842773438.244140625-.8393554688.314453125-1.3637695312.0693359375-.5244140625.0869140625-1.06640625.052734375-1.6259765625-.03515625-.978515625-.21875-1.8530273438-.55078125-2.623046875-.3330078125-.7685546875-.8056640625-1.4331054688-1.4169921875-1.9931640625-.6123046875-.55859375-1.3369140625-.9965820312-2.1767578125-1.3110351562-.8388671875-.3149414062-1.783203125-.4897460938-2.83203125-.5249023438-1.64453125-.0693359375-3.078125-.0869140625-4.3017578125-.0522460938-1.224609375.03515625-1.8359375.03515625-1.8359375,0,0-.0346679688-.0439453125-.18359375-.130859375-.4458007812-.087890625-.2622070312-.21875-.6557617188-.3935546875-1.1801757812h6.7666015625Z" fill="#1d1d1b"/>
    <path d="M621.9747882779,625.1648843532c.314453125.10546875.794921875.2280273438,1.4423828125.3671875.646484375.140625,1.3720703125.2543945312,2.1767578125.3413085938.8037109375.0874023438,1.5556640625.1313476562,2.255859375.1313476562l-5.875.5244140625v-1.3642578125ZM650.7716632779,626.0047281032v1.5732421875h-28.796875v-1.5732421875h28.796875ZM625.1740070279,627.472989822v.1049804688c-.8046875.03515625-1.4423828125.306640625-1.9140625.8129882812-.47265625.5073242188-.7080078125,1.1279296875-.7080078125,1.8623046875v.8393554688h-.5771484375v-3.6196289062h3.19921875ZM634.7736164029,654.172208572v3.3569335938h-3.8291015625v-.5244140625h.62890625c.83984375,0,1.5556640625-.279296875,2.150390625-.8388671875s.9091796875-1.2236328125.9443359375-1.9936523438h.10546875ZM638.0783039029,626.2142007595v31.3149414062h-3.41015625v-31.3149414062h3.41015625ZM637.9201007779,654.172208572h.158203125c.0341796875.7700195312.3486328125,1.4340820312.943359375,1.9936523438s1.3115234375.8388671875,2.1513671875.8388671875h.5771484375v.5244140625h-3.830078125v-3.3569335938ZM650.7716632779,625.1648843532v1.3642578125l-5.875-.5244140625c.69921875,0,1.4423828125-.0439453125,2.2294921875-.1313476562.787109375-.0869140625,1.5126953125-.2006835938,2.1767578125-.3413085938.6640625-.1391601562,1.154296875-.26171875,1.46875-.3671875ZM650.7716632779,627.472989822v3.6196289062h-.5771484375v-.8393554688c0-.734375-.2353515625-1.3549804688-.7080078125-1.8623046875-.4716796875-.5063476562-1.1103515625-.7778320312-1.9140625-.8129882812v-.1049804688h3.19921875Z" fill="#1d1d1b"/>
    <path d="M661.6808429654,629.361661697l-4.4580078125-.1577148438c-.560546875-.8037109375-1.2509765625-1.4423828125-2.072265625-1.9145507812-.822265625-.4721679688-1.740234375-.7080078125-2.75390625-.7080078125h-.6298828125v-.5244140625h12.169921875v.5244140625h-.6298828125c-.76953125,0-1.3203125.306640625-1.65234375.91796875-.33203125.6123046875-.3232421875,1.2329101562.0263671875,1.8623046875ZM659.8449054654,626.1092202907l9.7041015625,17.2578125-2.150390625,1.8359375-12.1171875-19.09375h4.5634765625ZM667.0841632779,654.172208572v3.3569335938h-3.8291015625v-.5244140625h.62890625c.83984375,0,1.5478515625-.279296875,2.125-.8388671875.576171875-.5595703125.8818359375-1.2236328125.91796875-1.9936523438h.1572265625ZM670.3361164029,643.9959390407v13.533203125h-3.4091796875v-13.533203125h3.4091796875ZM679.1486164029,626.1092202907h3.3046875l-12.484375,18.98828125-1.94140625-.5766601562,11.12109375-18.4116210938ZM670.1788898404,654.172208572h.1572265625c.0341796875.7700195312.3408203125,1.4340820312.91796875,1.9936523438s1.28515625.8388671875,2.1240234375.8388671875h.6298828125v.5244140625h-3.8291015625v-3.3569335938ZM677.1554523404,629.4139077907c.3837890625-.69921875.4013671875-1.345703125.0517578125-1.9409179688-.349609375-.5942382812-.9091796875-.8916015625-1.6787109375-.8916015625h-.62890625v-.5244140625h10.962890625v.5244140625h-.6298828125c-.9794921875,0-1.8974609375.271484375-2.75390625.8129882812-.8564453125.5424804688-1.529296875,1.1630859375-2.01953125,1.8623046875l-3.3037109375.1572265625Z" fill="#1d1d1b"/>
  </g>
</svg>