<?xml version="1.0" encoding="UTF-8"?>
<svg id="Capa_1" data-name="Capa 1" xmlns="http://www.w3.org/2000/svg" viewBox="0 0 62.28 95.22">
  <path d="M37.51,22.79l-.1,55.5c0,3.71-2.24,7.02-4.68,9.57-6.99,7.31-20.05,10.12-28.19,3.99-3.81-2.87-5.35-7.51-4.13-12.12.74-2.89,2.3-5.23,4.32-7.46,5.98-5.92,14.6-8.61,23.06-6.58V0c2.86,3.82,5.88,6.95,9.47,9.86,3.46,2.65,6.88,5.02,10.5,7.43,3.11,2.11,6.01,4.23,8.67,6.84,8.79,8.64,6.21,19.98,1.75,30.01.46-4.44.77-8.62.04-12.92-.78-5.34-3.76-9.6-8.3-12.47-3.85-2.46-8-4.19-12.42-5.95Z"/>
</svg>