<?xml version="1.0" encoding="UTF-8"?>
<svg id="Capa_1" data-name="Capa 1" xmlns="http://www.w3.org/2000/svg" viewBox="0 0 206.73 242.24">
  <path d="M176.63,149.39v83.94s-149.47,0-149.47,0v-83.94s-6.82-.03-6.82-.03v-44.7s163.03,0,163.03,0v28.34c-.34.64-.58,1.24,0,1.84v14.52s-6.74.04-6.74.04ZM97.72,143.91v-33.78s-14.87-.03-14.87-.03c-.29-.19-.52-.19-.86.01H25.88s-.01,33.8-.01,33.8h71.85ZM177.91,143.9v-33.79s-71.91,0-71.91,0v33.79s71.91,0,71.91,0ZM97.71,227.8v-78.43s-65.07,0-65.07,0v78.44s65.07-.01,65.07-.01ZM171.1,227.8v-78.42s-65.09,0-65.09,0v78.43s65.09-.01,65.09-.01Z" fill="#1d1d1b"/>
  <path d="M125.51,91.96c11.02-4.07,27.43-12.53,36.71-19.82,4.72-3.71,10.33-10.5,8.42-16.84-1.29-4.27-5.92-5.84-9.91-6.42-3.08-.45-6.02-.82-9.18-.74-14.22.34-25.66,8.4-33.85,19.51-4.27,5.65-7.88,11.6-10.44,18.2l-5.63,14.47c.9-16.41,6.71-33.9,16.99-46.97s24.22-20.61,41.04-18.9c3.49.35,6.73.75,10.06,1.87,4.88,1.65,9.03,4.55,11.97,8.82,8.67,12.6,4.62,24.24-6.62,33.27-15.06,12.09-39.95,18.26-58.83,20.81-4.73.64-9.18,1.18-14.14,1.4l23.42-8.65Z" fill="#1d1d1b"/>
  <path d="M53.78,35.76c-6.06,5.07-7.15,14.4-5.75,21.84,1.75,9.34,7.41,17.85,14.58,23.97,6.53,5.57,13.66,10.19,21.64,13.31l14.67,5.73c-4.09-.16-7.73-.65-11.57-1.39-13.91-2.69-27.44-8.5-37.51-18.61-9.18-9.21-14.02-21.58-13.37-34.6.35-7.07,1.69-14.47,5.81-20.28,4.41-6.22,11.54-10.3,19.28-7.52,13.63,4.9,23.28,23.64,28.14,36.48,5.4,14.25,8.72,30.22,9.69,45.66-3.09-8.63-6.08-17.01-9.64-25.4-4.93-11.63-11.11-24.23-18.48-34.46-1.74-2.41-3.83-4.42-6.41-5.81-3.66-1.99-7.9-1.58-11.08,1.08Z" fill="#1d1d1b"/>
</svg>