<?xml version="1.0" encoding="UTF-8"?>
<svg id="Capa_1" data-name="Capa 1" xmlns="http://www.w3.org/2000/svg" viewBox="0 0 37.24 52.69">
  <path d="M31.88,6.93C26.92,1.13,18.92.31,12.24,3.48,4.82,7.01.85,14.14,1.3,22.31c.59,10.7,7.32,19.83,12.44,28.81.09.16.34.18.67.1.37-.03.84-.25,1.28-.52.61-.33,1.2-.75,1.5-1.12,6.67-5.48,13.23-11.51,16.81-19.52,3.33-7.46,3.42-16.67-2.11-23.13ZM31.38,29.15c-2.61,7.81-8.37,13.75-14.52,18.98-3.98-6.88-8.5-13.57-10.75-21.28-1.96-6.74-1.96-16.17,4.17-20.93,5.43-4.22,13.86-1.68,17.96,3.11,4.78,5.58,5.4,13.34,3.13,20.12Z"/>
  <path d="M23.2,10.04c-4.44-2.16-9.89.12-12.75,3.86-1.39,1.82-2.11,4.13-1.88,6.41.28,2.74,2.19,4.52,4.59,5.63,4.84,1.92,11.32,1.03,14.45-3.53,3.14-4.56.11-10.17-4.41-12.37ZM25.22,20.87c-.2,1.62-.79,3.4-2.53,3.65-2.1.3-4.22-.09-6.17-.87-3.35-1.55-5.02-4.59-4.04-8.24.36-1.32,1.17-3.24,2.53-3.77,1.57-.61,3.68.06,5.09.81,2.95,1.56,5.55,4.94,5.12,8.42Z"/>
</svg>